<?xml version="1.0" standalone="no"?>
<!DOCTYPE svg PUBLIC "-//W3C//DTD SVG 20010904//EN"
 "http://www.w3.org/TR/2001/REC-SVG-20010904/DTD/svg10.dtd">
<svg version="1.0" xmlns="http://www.w3.org/2000/svg"
 width="811.000000pt" height="767.000000pt" viewBox="0 0 811.000000 767.000000"
 preserveAspectRatio="xMidYMid meet">

<g transform="translate(0.000000,767.000000) scale(0.100000,-0.100000)"
fill="#000000" stroke="none">
<path d="M3695 7309 c-384 -33 -812 -152 -1169 -323 -476 -229 -850 -535
-1234 -1011 -37 -47 -184 -268 -236 -358 -155 -264 -284 -593 -361 -921 -115
-488 -114 -1030 2 -1536 134 -586 433 -1136 854 -1574 587 -611 1349 -971
2194 -1037 177 -14 484 -7 665 15 908 110 1741 590 2290 1317 155 206 247 357
359 589 513 1070 424 2350 -232 3330 -197 295 -413 534 -677 751 -531 436
-1182 701 -1865 759 -140 12 -447 11 -590 -1z m1825 -1646 l-1 -608 -300 -305
c-165 -168 -424 -433 -576 -588 l-277 -284 107 -103 c60 -57 317 -309 573
-561 l464 -457 0 -578 c0 -319 -4 -579 -8 -579 -8 0 -168 153 -457 439 -115
114 -475 467 -800 786 -628 616 -1012 994 -1051 1035 l-24 24 263 266 c145
146 378 382 518 525 140 143 365 372 500 509 134 137 393 401 575 585 182 185
366 373 409 419 43 45 79 82 81 82 2 0 4 -273 4 -607z m-2220 -555 l0 -903
-162 -163 -163 -163 163 -160 162 -161 -2 -936 -3 -937 -410 0 -410 0 -3 2150
c-1 1183 0 2156 3 2163 3 9 96 12 415 12 l410 0 0 -902z"/>
</g>
</svg>
